<svg width="2438" height="1440" viewBox="0 0 2438 1440" fill="none" xmlns="http://www.w3.org/2000/svg">
<path d="M960.638 1144.22C926.84 1087.21 911.338 1013.17 908.047 922.789C883.655 929.562 858.247 933.259 844.264 930.371C794.974 920.193 782.745 830.954 774.571 761.16C764.305 673.508 784.065 563.315 826.464 554.452C867.063 545.966 899.21 578.48 922.882 602.423C924.541 604.1 926.158 605.736 927.734 607.312C951.439 397.602 975.496 305.212 1069.79 201.466C1143 120.918 1309.25 54.5301 1549.91 81.9928C1791.02 105.162 1939.84 204.661 1994.7 298.668C2065.55 420.077 2069.7 515.637 2049.09 726.881C2051.51 725.327 2054.02 723.678 2056.61 721.973L2056.62 721.968C2084.75 703.47 2122.95 678.349 2160.9 695.09C2200.53 712.574 2196.95 824.467 2168.68 908.07C2146.17 974.639 2115.65 1059.39 2065.33 1059.09C2050.72 1059.01 2025.86 1049.7 2002.98 1037.61C1980.96 1125.45 1950.39 1194.73 1905.43 1243.51C1764.79 1396.12 1593.4 1421.68 1410.87 1404.71C1228.35 1387.73 1066.47 1322.73 960.638 1144.22Z" fill="#1C5947"/>
<path d="M794.472 522.451C752.072 531.314 732.313 641.507 742.578 729.16C750.752 798.953 762.982 888.193 812.271 898.371C842.012 904.512 923.434 880.869 936.841 861.187C1004.62 761.673 985.669 663.249 899.165 578.702C874.926 555.011 840.017 512.931 794.472 522.451Z" fill="white"/>
<path fill-rule="evenodd" clip-rule="evenodd" d="M850.202 544.663C833.69 533.032 815.849 526.156 796.109 530.282C788.725 531.826 781.094 538.099 773.919 550.234C766.843 562.202 760.956 578.667 756.579 598.024C747.836 636.691 745.489 685.238 750.524 728.229C754.623 763.231 759.659 802.239 769.633 833.704C779.824 865.857 794.005 886.43 813.889 890.536C819.963 891.79 829.535 891.62 841.303 889.995C852.871 888.397 865.862 885.497 878.416 881.79C890.984 878.079 902.907 873.621 912.385 868.979C922.291 864.129 928.16 859.722 930.229 856.683C963.19 808.294 974.683 760.806 967.948 715.509C961.195 670.086 935.958 625.849 893.573 584.423C890.756 581.67 887.871 578.753 884.903 575.753C874.565 565.302 863.217 553.831 850.202 544.663ZM896.87 565.084C899.668 567.915 902.301 570.581 904.757 572.981C948.876 616.102 976.37 663.352 983.774 713.156C991.198 763.086 978.276 814.567 943.453 865.691C938.819 872.493 929.482 878.423 919.421 883.349C908.934 888.484 896.128 893.243 882.947 897.135C869.752 901.031 855.973 904.121 843.491 905.844C831.209 907.54 819.451 908.022 810.653 906.206C781.249 900.134 764.669 870.998 754.381 838.539C743.874 805.391 738.708 764.883 734.633 730.091C729.402 685.429 731.803 635.053 740.973 594.495C745.553 574.239 751.913 556.016 760.146 542.091C768.28 528.333 779.019 517.509 792.835 514.621C818.641 509.227 841.027 518.63 859.416 531.582C873.725 541.661 886.44 554.529 896.87 565.084Z" fill="#1C5947"/>
<path fill-rule="evenodd" clip-rule="evenodd" d="M822.879 575.7C826.978 574.023 831.79 575.789 833.505 579.833C848.035 614.099 855.877 637.815 859.06 661.954C861.978 684.079 860.798 706.616 860.275 736.489C860.233 738.903 860.58 741.037 860.538 743.555C860.464 747.932 857.078 751.861 852.635 751.774C848.192 751.688 844.343 748.249 844.416 743.872C844.456 741.486 844.114 739.083 844.153 736.806C844.68 706.465 845.488 685.179 842.729 664.26C839.794 641.997 832.948 619.818 818.745 586.326C817.03 582.282 818.779 577.377 822.879 575.7Z" fill="#1C5947"/>
<path d="M2128.91 663.09C2168.54 680.574 2164.95 792.467 2136.69 876.07C2114.18 942.639 2083.66 1027.39 2033.33 1027.09C2002.97 1026.92 1928.24 986.866 1919.22 964.826C1873.61 853.396 1912.61 761.063 2014.81 696.347C2043.44 678.213 2086.34 644.31 2128.91 663.09Z" fill="white"/>
<path fill-rule="evenodd" clip-rule="evenodd" d="M2069.78 673.231C2088.35 665.287 2107.23 662.27 2125.68 670.41C2132.58 673.454 2138.74 681.177 2143.24 694.538C2147.67 707.716 2150 725.046 2150.26 744.889C2150.77 784.529 2142.97 832.503 2129.11 873.508C2117.82 906.892 2104.79 944.001 2088.49 972.705C2071.83 1002.04 2053.68 1019.21 2033.38 1019.09C2027.18 1019.06 2017.85 1016.9 2006.68 1012.87C1995.7 1008.9 1983.59 1003.36 1972.08 997.125C1960.56 990.883 1949.83 984.043 1941.52 977.532C1932.84 970.729 1928.01 965.198 1926.62 961.796C1904.44 907.611 1903.08 858.772 1919.08 815.865C1935.13 772.838 1969.02 734.815 2019.09 703.105C2022.42 700.998 2025.84 698.745 2029.37 696.427C2041.66 688.354 2055.14 679.492 2069.78 673.231ZM2019.89 683.503C2016.56 685.691 2013.43 687.751 2010.53 689.588C1958.41 722.595 1921.69 763.097 1904.09 810.273C1886.45 857.569 1888.38 910.61 1911.81 967.857C1914.93 975.474 1922.83 983.215 1931.65 990.125C1940.84 997.329 1952.38 1004.65 1964.46 1011.19C1976.56 1017.75 1989.39 1023.63 2001.24 1027.91C2012.9 1032.13 2024.3 1035.04 2033.29 1035.09C2063.31 1035.27 2085.59 1010.22 2102.4 980.605C2119.57 950.366 2133.05 911.817 2144.27 878.632C2158.67 836.034 2166.8 786.26 2166.26 744.682C2165.99 723.916 2163.56 704.769 2158.4 689.437C2153.31 674.289 2145.05 661.468 2132.14 655.771C2108.02 645.13 2084.17 649.674 2063.49 658.52C2047.39 665.404 2032.28 675.348 2019.89 683.503Z" fill="#1C5947"/>
<path fill-rule="evenodd" clip-rule="evenodd" d="M2089.92 708.864C2086.26 706.372 2081.19 707.099 2078.67 710.698C2057.33 741.194 2044.73 762.762 2036.6 785.712C2029.14 806.747 2025.61 829.036 2019.91 858.365C2019.45 860.735 2018.67 862.75 2018.18 865.223C2017.35 869.519 2019.84 874.066 2024.2 874.905C2028.57 875.744 2033.05 873.181 2033.89 868.884C2034.34 866.541 2035.18 864.262 2035.61 862.027C2041.41 832.239 2045.04 811.251 2052.09 791.362C2059.59 770.196 2070.9 749.925 2091.76 720.118C2094.27 716.518 2093.58 711.357 2089.92 708.864Z" fill="#1C5947"/>
<path d="M928.643 1112.22C869.027 1011.67 866.338 858.099 887.173 655.384C914.714 387.432 932.28 285.558 1037.8 169.466C1111 88.9182 1277.25 22.5301 1517.92 49.9929C1759.03 73.1623 1907.84 172.661 1962.7 266.668C2041.77 402.16 2037.77 505.459 2008.99 773.281C1987.22 975.898 1952.66 1125.55 1873.44 1211.51C1732.8 1364.12 1561.41 1389.68 1378.88 1372.71C1196.35 1355.73 1034.48 1290.73 928.643 1112.22Z" fill="white"/>
<path fill-rule="evenodd" clip-rule="evenodd" d="M1516.24 65.9059L1516.1 65.8897C1278.51 38.777 1118.2 104.79 1049.64 180.227C948.088 291.954 930.674 388.641 903.089 657.02C892.707 758.035 888.277 846.032 893.697 920.958C899.121 995.923 914.339 1056.72 942.406 1104.06C1044.78 1276.73 1201 1340.09 1380.36 1356.77C1560.34 1373.51 1725.78 1348.13 1861.67 1200.67C1898.97 1160.2 1926.5 1103.89 1947.39 1031.7C1968.27 959.533 1982.24 872.539 1993.09 771.572C2021.91 503.323 2024.98 405.129 1948.88 274.733C1897.5 186.691 1754.43 88.7936 1516.38 65.9195L1516.24 65.9059ZM1517.92 49.9929C1277.25 22.5301 1111 88.9182 1037.8 169.466C932.28 285.558 914.714 387.432 887.173 655.384C866.338 858.099 869.027 1011.67 928.643 1112.22C1034.48 1290.73 1196.35 1355.73 1378.88 1372.71C1561.41 1389.68 1732.8 1364.12 1873.44 1211.51C1952.66 1125.55 1987.22 975.898 2008.99 773.281C2037.77 505.459 2041.77 402.16 1962.7 266.668C1907.84 172.661 1759.03 73.1623 1517.92 49.9929Z" fill="#1C5947"/>
<path d="M1300.01 747.499C1297.87 788.588 1277.58 820.921 1254.69 819.715C1231.8 818.509 1214.98 784.223 1217.13 743.133C1219.27 702.044 1239.56 669.712 1262.45 670.917C1285.34 672.123 1302.15 706.409 1300.01 747.499Z" fill="#1C5947"/>
<path d="M1680.01 787.498C1677.87 828.587 1657.58 860.92 1634.69 859.714C1611.8 858.509 1594.98 824.222 1597.12 783.132C1599.27 742.043 1619.56 709.711 1642.45 710.916C1665.33 712.122 1682.15 746.409 1680.01 787.498Z" fill="#1C5947"/>
<path fill-rule="evenodd" clip-rule="evenodd" d="M1396.63 798.858C1399.81 802.006 1399.63 806.723 1396.48 809.902C1386.19 820.281 1378.57 836.743 1375.91 862.038C1373.94 880.78 1380.6 894.068 1390.73 902.811C1401.2 911.844 1416.49 917.07 1431.35 918.14C1435.82 918.462 1438.79 922.47 1438.47 926.932C1438.15 931.395 1434.15 934.374 1429.68 934.052C1412.37 932.806 1394.22 926.705 1380.42 914.799C1366.29 902.602 1357.47 884.404 1360 860.366C1362.91 832.682 1371.93 812.484 1385.59 798.703C1388.74 795.523 1393.45 795.71 1396.63 798.858Z" fill="#1C5947"/>
<path fill-rule="evenodd" clip-rule="evenodd" d="M1639.38 1063.7C1638.48 1059.31 1633.45 1055.68 1629.07 1056.58C1491.24 1112.73 1366.79 1104.64 1216.55 1049.43C1212.45 1047.64 1206.88 1049.14 1205.09 1053.25C1203.3 1057.36 1205.7 1064.02 1209.8 1065.81C1363.1 1122.36 1491.27 1129.83 1632.37 1073.02C1636.75 1072.12 1640.27 1068.09 1639.38 1063.7Z" fill="#1C5947"/>
<path d="M1760.86 689.341C1766.17 700.2 1762.07 716.035 1748.35 722.162C1710.56 739.03 1717.25 682.269 1666.67 669.558C1640.23 662.915 1615.78 675.539 1609.41 647.905C1601.24 612.437 1650.61 611.585 1682.89 620.117C1725.53 631.382 1752.05 671.343 1760.86 689.341Z" fill="#1C5947"/>
<path d="M1152.1 625.205C1144.65 634.722 1145.37 651.064 1157.52 659.91C1190.97 684.264 1196.23 627.353 1248.35 625.436C1275.59 624.435 1296.88 641.865 1308.85 616.158C1324.22 583.165 1276.11 572.068 1242.76 573.701C1198.72 575.858 1164.46 609.431 1152.1 625.205Z" fill="#1C5947"/>
<path fill-rule="evenodd" clip-rule="evenodd" d="M1516.96 53.742C1276.38 26.2871 1111.03 92.7512 1037.84 173.319C974.973 242.522 943.27 307.123 922.038 404.482C922.038 404.482 1144.93 431.235 1344.22 453.42C1339.37 457.736 1334.61 461.672 1330.1 465.405C1305.87 485.465 1288.7 499.682 1301.22 535.569C1306.84 551.668 1330.55 568.501 1351.74 561.789C1367.36 556.844 1375.02 548.008 1392.09 528.321C1400.17 518.998 1410.37 507.241 1424.52 492.311C1432.53 483.854 1439.86 474.376 1446 464.548C1451.13 465.096 1456.2 465.637 1461.22 466.169C1461.09 466.672 1460.96 467.177 1460.82 467.684C1454.8 489.771 1440.88 505.26 1428.61 518.911C1410.9 538.613 1396.63 554.486 1414.53 580.839C1427.52 599.946 1451.05 603.354 1467.76 596.351C1495.45 584.745 1513.19 556.254 1537.17 496.981C1540.08 489.785 1542.5 482.303 1544.37 474.765C1548.7 475.202 1553.05 475.641 1557.42 476.081C1557.42 476.687 1557.42 477.297 1557.41 477.909C1557.08 504.89 1547.17 523.739 1538.68 539.863C1527.04 561.984 1518.1 578.977 1540.33 604.8C1555 621.836 1578.12 623.84 1592.68 613.086C1616.82 595.263 1633.21 551.951 1639.7 488.91C1639.86 487.371 1640 485.827 1640.13 484.279C1829.51 502.8 2026.95 520.603 2026.95 520.603C2026.43 420.957 2008.85 351.176 1961.75 270.417C1906.91 176.394 1758 76.9026 1516.96 53.742Z" fill="#1C5947"/>
<path fill-rule="evenodd" clip-rule="evenodd" d="M635.259 212.304C673.322 175.232 727.875 136.328 791.068 136.497C819.175 136.571 853.63 150.168 864.088 186.929C872.161 215.303 861.989 244.001 855.562 261.692C839.228 306.649 812.267 345.998 784.971 381.202C719.022 466.26 645.978 545.813 574.154 624.037L571.683 626.728C508.124 695.953 442.906 765.457 373.339 830.08C369.433 833.708 365.557 837.323 361.698 840.922C357.475 844.86 353.273 848.779 349.074 852.676C339.987 878.858 330.984 905.268 321.956 931.751C313.403 956.841 304.828 981.997 296.138 1007.09C339.903 961.098 391.123 920.305 448.666 892.838C485.113 875.44 523.706 865.101 571.435 878.374C617.088 891.069 642.728 921.755 663.675 946.824C664.591 947.92 665.497 949.005 666.397 950.078C678.055 963.986 687.9 977.881 697.288 991.131C699.083 993.664 700.861 996.174 702.631 998.655C713.824 1014.34 725.302 1029.77 740.559 1046.13C824.273 1135.92 958.002 1194.95 1101.9 1226.39C1245.42 1257.75 1395.61 1260.9 1509.03 1241.83C1820.07 1189.54 2026.14 1100.54 2161.87 1017.81C2276.41 948.008 2341.15 882.657 2378.42 845.034C2385.32 838.062 2391.28 832.042 2396.45 827.123C2406.04 817.978 2421.23 818.344 2430.38 827.939C2439.52 837.534 2439.16 852.726 2429.56 861.87C2424.88 866.333 2419.3 871.975 2412.71 878.637C2375.68 916.072 2306.83 985.683 2186.85 1058.8C2045.49 1144.95 1833.57 1235.94 1516.98 1289.16C1396.96 1309.34 1240.56 1305.82 1091.65 1273.29C943.12 1240.83 798.572 1178.74 705.45 1078.86C688.05 1060.2 675.144 1042.77 663.559 1026.54C661.611 1023.81 659.715 1021.13 657.852 1018.5C648.477 1005.28 639.91 993.199 629.612 980.915L629.306 980.549C606.699 953.582 589.669 933.266 558.574 924.619C525.925 915.54 499.696 921.667 469.343 936.155C395.679 971.318 331.527 1032.27 281.156 1098.96C263.623 1122.17 248.262 1145.31 235.357 1170.45C235.21 1170.74 235.049 1171.06 234.876 1171.4C234.187 1173.27 233.416 1175.35 232.445 1177.86C230.245 1183.57 227.421 1190.35 223.667 1196.7C223.293 1197.34 222.738 1198.26 222.096 1199.19C221.808 1199.6 221.171 1200.51 220.282 1201.54C219.849 1202.04 219.006 1202.97 217.82 1204.01C217.056 1204.67 214.112 1207.23 209.471 1208.74C206.896 1209.58 202.704 1210.46 197.655 1209.53C192.176 1208.52 187.476 1205.7 184.088 1201.9C178.507 1195.65 178.103 1188.71 178.023 1187.34L178.02 1187.29C177.801 1183.57 178.544 1180.59 178.654 1180.15L178.664 1180.11C179.056 1178.47 179.566 1177.08 179.737 1176.62L179.74 1176.61C180.589 1174.3 182.084 1170.91 183.435 1167.92C185.623 1163.07 188.476 1157 190.718 1152.42C191.757 1149.63 192.833 1146.78 193.759 1144.49L194.761 1142.01C204.431 1118.13 213.806 1094.98 222.459 1071.27C241.203 1019.9 258.64 968.733 276.175 917.277C276.474 916.4 276.773 915.522 277.072 914.645C244.976 939.077 208.827 961.469 163.312 980.618C112.2 1002.12 56.4816 1013.68 28.5425 1019.06C15.5268 1021.57 2.9437 1013.05 0.43739 1000.03C-2.06892 987.019 6.45065 974.436 19.4664 971.929C46.9368 966.64 98.4834 955.818 144.697 936.375C214.604 906.963 259.586 869.74 307.697 825.53C309.907 819.199 312.132 812.859 314.372 806.51C357.573 684.089 404.078 562.793 466.912 447.046C512.356 363.333 564.796 280.933 635.259 212.304ZM384.732 752.809C436.724 701.803 486.739 648.272 536.326 594.265L538.172 592.255C610.425 513.562 682.321 435.259 747.038 351.791C773.412 317.775 796.696 283.149 810.447 245.301C817.501 225.886 821.166 211.471 817.92 200.064C815.459 191.412 806.638 184.538 790.941 184.496C747.082 184.38 704.259 212.105 668.75 246.689C603.351 310.387 553.628 387.914 509.097 469.947C459.819 560.723 420.647 655.471 384.732 752.809Z" fill="#02DA9A"/>
</svg>
